<?xml version="1.0" encoding="UTF-8" standalone="no"?>
<!-- Created with Inkscape (http://www.inkscape.org/) -->

<svg
   width="1024"
   height="1024"
   viewBox="0 0 270.93333 270.93333"
   version="1.1"
   id="svg1"
   inkscape:version="1.4.2 (ebf0e940d0, 2025-05-08)"
   sodipodi:docname="solver.svg"
   xml:space="preserve"
   xmlns:inkscape="http://www.inkscape.org/namespaces/inkscape"
   xmlns:sodipodi="http://sodipodi.sourceforge.net/DTD/sodipodi-0.dtd"
   xmlns="http://www.w3.org/2000/svg"
   xmlns:svg="http://www.w3.org/2000/svg"><sodipodi:namedview
     id="namedview1"
     pagecolor="#505050"
     bordercolor="#ffffff"
     borderopacity="1"
     inkscape:showpageshadow="0"
     inkscape:pageopacity="0"
     inkscape:pagecheckerboard="1"
     inkscape:deskcolor="#d1d1d1"
     inkscape:document-units="mm"
     inkscape:zoom="1"
     inkscape:cx="431.5"
     inkscape:cy="456.5"
     inkscape:window-width="2496"
     inkscape:window-height="1440"
     inkscape:window-x="0"
     inkscape:window-y="0"
     inkscape:window-maximized="1"
     inkscape:current-layer="layer1" /><defs
     id="defs1" /><g
     inkscape:label="Layer 1"
     inkscape:groupmode="layer"
     id="layer1"><path
       style="fill:#000000;stroke-width:1.0003"
       d="m 44.96939,208.81173 c -0.361647,-0.36187 -0.157395,-1.48937 0.416239,-2.29769 2.154556,-3.03608 20.999341,-27.9279 21.426608,-28.30211 0.382891,-0.33536 0.985613,-0.4633 2.182529,-0.4633 1.929094,0 2.67192,0.41254 5.444541,3.02374 2.77348,2.612 5.973839,3.43948 8.940353,2.31162 1.25729,-0.47802 25.36854,-16.65169 26.85657,-18.01521 0.41394,-0.3793 1.09855,-1.37127 1.52136,-2.20436 l 0.76875,-1.51472 v -12.14857 -12.14857 l 10.48156,-5.92764 10.48156,-5.92764 1.16989,-1.74331 1.16988,-1.74332 1.10287,-16.02409 1.10286,-16.024107 -0.64962,-1.669888 c -0.48516,-1.247109 -1.09156,-2.120605 -2.39516,-3.450126 -1.57962,-1.611024 -1.89398,-1.810404 -3.30729,-2.097613 -2.57074,-0.522416 -3.88729,-1.07723 -4.95701,-2.088949 -1.13678,-1.075152 -1.76413,-2.119631 -1.76413,-2.93712 0,-0.524786 5.1398,-13.122829 11.26315,-27.606854 l 2.88204,-6.817114 h 0.93606 0.93607 l 2.88204,6.817114 c 6.12335,14.484025 11.26314,27.082068 11.26314,27.606854 0,0.817489 -0.62734,1.861968 -1.76413,2.93712 -1.06971,1.011719 -2.38626,1.566533 -4.957,2.088949 -1.41331,0.287209 -1.72767,0.486589 -3.30729,2.097613 -1.3036,1.329521 -1.91001,2.203017 -2.39516,3.450126 l -0.64963,1.669888 1.10287,16.024107 1.10287,16.02409 1.16988,1.74332 1.16989,1.74331 10.48156,5.92764 10.48156,5.92764 v 12.14857 12.14857 l 0.76875,1.51472 c 0.42281,0.83309 1.10742,1.82506 1.52135,2.20436 1.48804,1.36352 25.59928,17.53719 26.85657,18.01521 2.96652,1.12786 6.16688,0.30038 8.94036,-2.31162 2.77262,-2.6112 3.51545,-3.02374 5.44454,-3.02374 1.19692,0 1.79964,0.12794 2.18253,0.4633 0.42927,0.37598 19.27473,25.26999 21.44423,28.32687 0.37298,0.52554 0.57769,1.14316 0.52649,1.58845 -0.0797,0.69352 -0.16021,0.73269 -1.67128,0.81376 -1.0134,0.0543 -7.75904,-0.79935 -18.65312,-2.36072 -20.26263,-2.90411 -18.52072,-2.31047 -18.52104,-6.31191 -1.1e-4,-1.39244 0.19514,-3.5164 0.43389,-4.7199 0.40329,-2.03293 0.40294,-2.31452 -0.005,-3.96854 -0.24149,-0.97919 -0.71476,-2.31761 -1.05171,-2.97428 l -0.61263,-1.19394 -15.58791,-7.87579 c -8.57335,-4.3317 -15.72681,-7.87593 -15.89658,-7.87608 -0.16978,-1.6e-4 -0.34837,0.10137 -0.39688,0.22561 -0.0485,0.12425 -5.09916,3.10259 -11.22368,6.61856 -8.41804,4.83263 -11.35025,6.39265 -12.01556,6.39265 -0.6653,0 -3.59751,-1.56002 -12.01555,-6.39265 -6.12452,-3.51597 -11.17518,-6.49431 -11.22368,-6.61856 -0.0485,-0.12424 -0.2271,-0.22577 -0.39688,-0.22561 -0.16977,1.5e-4 -7.32324,3.54438 -15.89659,7.87608 l -15.58791,7.87579 -0.61263,1.19394 c -0.33694,0.65667 -0.81021,1.99509 -1.05171,2.97428 -0.40793,1.65402 -0.40828,1.93561 -0.005,3.96854 0.23875,1.2035 0.43401,3.32746 0.43389,4.7199 -3.2e-4,4.00226 1.74213,3.40916 -18.521036,6.30423 -15.827831,2.26138 -19.740726,2.69519 -20.196528,2.23912 z m 106.78092,-35.29898 c 6.11019,-3.4946 11.21443,-6.35382 11.34274,-6.35382 0.13161,0 0.23329,-5.87954 0.23329,-13.49012 v -13.49012 l -11.17865,-6.38313 c -6.14825,-3.51072 -11.387,-6.52353 -11.64167,-6.69512 -0.35543,-0.2395 -0.57061,-0.2395 -0.92604,0 -0.25466,0.17159 -5.49341,3.1844 -11.64166,6.69512 l -11.17865,6.38313 v 13.49012 c 0,7.63344 0.10151,13.49012 0.23382,13.49012 0.12859,0 5.21852,2.85582 11.31093,6.34626 6.09242,3.49044 11.36047,6.34966 11.70678,6.35382 0.34761,0.004 5.6061,-2.83862 11.73911,-6.34626 z m -22.04478,-2.06384 -10.16773,-6.03498 -0.0572,-12.03368 -0.0572,-12.03369 10.05643,-5.82433 c 5.53104,-3.20338 10.28447,-5.82433 10.56317,-5.82433 0.27871,0 5.03214,2.62095 10.56318,5.82433 l 10.05643,5.82433 -0.0572,12.03369 -0.0572,12.03368 -10.16773,6.03498 c -5.59226,3.31923 -10.24412,6.03497 -10.33748,6.03497 -0.0934,0 -4.74521,-2.71574 -10.33747,-6.03497 z"
       id="path1" /></g></svg>
